<svg width="600" height="600" viewBox="0 0 250 250" fill="none" xmlns="http://www.w3.org/2000/svg">
<path d="M71.0527 104.766C71.0527 107.812 71.3809 110.283 71.9609 112.09C72.6172 113.898 73.4414 115.875 74.5918 118.012C74.9961 118.668 75.1641 119.324 75.1641 119.904C75.1641 120.721 74.668 121.545 73.6016 122.367L68.4199 125.824C67.6797 126.312 66.9395 126.564 66.2852 126.564C65.4609 126.564 64.6367 126.152 63.8125 125.412C62.7064 124.219 61.7151 122.924 60.8516 121.545C59.9365 119.963 59.0868 118.343 58.3047 116.691C51.8945 124.26 43.832 128.045 34.125 128.045C27.2207 128.045 21.7129 126.068 17.6777 122.123C13.6484 118.172 11.5957 112.908 11.5957 106.33C11.5957 99.3418 14.0605 93.666 19.082 89.3945C24.0938 85.1133 30.7539 82.9766 39.2305 82.9766C42.0234 82.9766 44.8984 83.2207 47.9414 83.6328C50.9883 84.0449 54.1152 84.7012 57.4043 85.4414V79.4375C57.4043 73.1875 56.084 68.832 53.5371 66.2852C50.9004 63.7363 46.4609 62.5 40.1289 62.5C37.252 62.5 34.293 62.8281 31.248 63.5684C28.2249 64.2887 25.2571 65.224 22.3672 66.3672C21.0469 66.9394 20.0625 67.2676 19.4902 67.4355C18.9121 67.5957 18.5 67.6797 18.1719 67.6797C17.0195 67.6797 16.4473 66.8555 16.4473 65.1328V61.1035C16.4473 59.7832 16.6074 58.7988 17.0195 58.2207C17.4297 57.6484 18.1719 57.0762 19.3242 56.4961C22.1992 55.0156 25.6563 53.7812 29.6836 52.7949C33.7129 51.7266 37.9922 51.2324 42.5156 51.2324C52.2969 51.2324 59.4531 53.4512 64.0625 57.8926C68.5859 62.332 70.8828 69.0762 70.8828 78.125V104.766H71.0527ZM37.666 117.271C40.375 117.271 43.1738 116.775 46.1348 115.791C49.0957 114.799 51.7266 112.992 53.9473 110.527C55.2598 108.965 56.252 107.238 56.7402 105.264C57.2363 103.287 57.5645 100.908 57.5645 98.1055V94.6582C55.0731 94.0461 52.5488 93.5773 50.0039 93.2539C47.4378 92.9303 44.854 92.7672 42.2676 92.7656C36.7598 92.7656 32.7305 93.834 30.0137 96.0547C27.3047 98.2734 25.9863 101.395 25.9863 105.508C25.9863 109.375 26.9707 112.252 29.0293 114.227C31.0059 116.279 33.8828 117.271 37.666 117.271ZM103.699 126.152C102.219 126.152 101.234 125.908 100.578 125.328C99.9141 124.832 99.3418 123.687 98.8457 122.125L79.5215 58.5547C79.0332 56.9082 78.7793 55.8398 78.7793 55.2598C78.7793 53.9473 79.4375 53.209 80.7578 53.209H88.8145C90.377 53.209 91.4453 53.4512 92.0254 54.0312C92.6816 54.5195 93.1777 55.6719 93.666 57.2344L107.482 111.68L120.314 57.2363C120.721 55.5957 121.217 54.5215 121.871 54.0332C122.535 53.5352 123.688 53.207 125.168 53.207H131.744C133.307 53.207 134.377 53.4512 135.033 54.0312C135.689 54.5195 136.27 55.6719 136.596 57.2344L149.59 112.336L163.818 57.2363C164.307 55.5957 164.887 54.5215 165.459 54.0332C166.115 53.5352 167.191 53.207 168.67 53.207H176.314C177.635 53.207 178.375 53.8633 178.375 55.2598C178.375 55.6699 178.291 56.084 178.207 56.5801C178.123 57.0762 177.963 57.7324 177.635 58.6309L157.814 122.207C157.318 123.848 156.746 124.916 156.082 125.41C155.426 125.908 154.357 126.236 152.961 126.236H145.891C144.326 126.236 143.258 125.982 142.602 125.412C141.938 124.832 141.365 123.764 141.037 122.123L128.289 69.0762L115.623 122.039C115.213 123.687 114.725 124.756 114.061 125.328C113.402 125.908 112.252 126.152 110.771 126.152H103.699ZM209.373 128.373C205.102 128.373 200.82 127.877 196.709 126.893C192.596 125.908 189.393 124.832 187.256 123.604C185.936 122.863 185.035 122.041 184.707 121.299C184.383 120.574 184.214 119.789 184.211 118.994V114.799C184.211 113.076 184.867 112.252 186.105 112.252C186.594 112.252 187.088 112.336 187.584 112.504C188.072 112.664 188.813 112.992 189.635 113.32C192.542 114.597 195.576 115.563 198.686 116.203C201.973 116.859 205.178 117.187 208.473 117.187C213.654 117.187 217.682 116.279 220.475 114.473C223.273 112.664 224.754 110.031 224.754 106.66C224.754 104.355 224.014 102.471 222.535 100.906C221.055 99.3437 218.254 97.9453 214.227 96.6269L202.301 92.9258C196.297 91.0332 191.855 88.2422 189.148 84.541C186.434 80.918 185.035 76.8887 185.035 72.6172C185.035 69.1602 185.777 66.1172 187.256 63.4844C188.724 60.8388 190.743 58.539 193.176 56.7402C195.641 54.8555 198.441 53.4512 201.73 52.4668C205.018 51.4824 208.473 51.0703 212.09 51.0703C213.898 51.0703 215.789 51.1543 217.598 51.3984C219.49 51.6426 221.215 51.9707 222.945 52.2988C224.586 52.7109 226.15 53.123 227.631 53.6191C229.111 54.1152 230.264 54.6035 231.088 55.0996C232.24 55.7559 233.063 56.4121 233.551 57.1504C234.047 57.8145 234.291 58.7168 234.291 59.8672V63.7344C234.291 65.4609 233.635 66.3672 232.398 66.3672C231.742 66.3672 230.674 66.0332 229.279 65.377C224.586 63.2402 219.322 62.1719 213.486 62.1719C208.801 62.1719 205.102 62.9121 202.553 64.4766C199.996 66.0332 198.686 68.4219 198.686 71.793C198.686 74.0977 199.508 76.0723 201.148 77.6289C202.797 79.1914 205.842 80.7578 210.197 82.1523L221.877 85.8535C227.799 87.7461 232.072 90.3769 234.619 93.75C237.168 97.123 238.404 100.99 238.404 105.264C238.404 108.803 237.662 112.008 236.268 114.799C234.787 117.6 232.811 120.064 230.264 122.039C227.715 124.092 224.67 125.572 221.139 126.648C217.438 127.793 213.57 128.373 209.373 128.373Z" fill="#252F3E"/>
<path d="M230.469 143.258C221.812 143.381 211.594 145.312 203.865 150.742C201.477 152.467 201.889 154.769 204.521 154.441C213.326 153.373 232.725 151.07 236.182 155.51C239.639 159.865 232.322 178.205 229.027 186.35C228.043 188.81 230.18 189.805 232.398 187.912C246.871 175.742 250.656 150.33 247.695 146.629C246.217 144.822 239.125 143.133 230.469 143.258ZM3.18359 148.162C1.37304 148.389 0.55273 150.576 2.46484 152.305C34.707 181.41 77.3848 198.93 124.756 198.93C158.555 198.93 197.861 188.324 224.914 168.344C229.354 165.047 225.494 160.035 220.969 162.086C190.629 174.918 157.646 181.168 127.633 181.168C83.1445 181.168 40.1328 168.916 5.26367 148.682C4.50195 148.23 3.78906 148.088 3.18554 148.162H3.18359Z" fill="#FF9900"/>
</svg>
