<?xml version="1.0" encoding="UTF-8"?><svg id="Logo" xmlns="http://www.w3.org/2000/svg" viewBox="0 0 351.8447 80"><defs><style>.cls-1{fill:#0d213f;}</style></defs><path id="logo_ZM_wordmark" class="cls-1" d="m73.78643,78.83495H10.87915c-4.41368,0-8.3571-2.63501-10.04608-6.71268-1.68898-4.07767-.76361-8.72952,2.3574-11.84997L46.76394,16.69903H15.534C6.9548,16.69903.00002,9.74425.00002,1.16505h58.0143c4.4133,0,8.35653,2.63425,10.0457,6.71192,1.68936,4.07767.76456,8.72876-2.35608,11.85073L22.13029,63.30097h36.12216c8.5792,0,15.53398,6.95478,15.53398,15.53398ZM351.84468,30.29126c0-16.70282-13.58863-30.29126-30.29126-30.29126-8.93431,0-16.97512,3.89032-22.52427,10.06333-5.54915-6.17301-13.58996-10.06333-22.52427-10.06333-16.70263,0-30.29126,13.58844-30.29126,30.29126v48.54369c8.57917,0,15.53398-6.95479,15.53398-15.53396V30.29126c0-8.13714,6.62015-14.75728,14.75728-14.75728s14.75728,6.62015,14.75728,14.75728v33.00972c0,8.57917,6.95481,15.53396,15.53398,15.53396V30.29126c0-8.13714,6.62015-14.75728,14.75728-14.75728s14.75728,6.62015,14.75728,14.75728v33.00972c0,8.57917,6.95479,15.53396,15.53396,15.53396l.00002-48.54369Zm-113.39806,9.70874c0,22.09141-17.90859,40-40,40s-40-17.90859-40-40S176.35526,0,198.44663,0s40,17.90859,40,40Zm-15.53398,0c0-13.51221-10.95381-24.46602-24.46602-24.46602s-24.46602,10.95381-24.46602,24.46602,10.95381,24.46602,24.46602,24.46602,24.46602-10.95381,24.46602-24.46602Zm-70.67961,0c0,22.09141-17.90859,40-40,40s-40-17.90859-40-40S90.14167,0,112.23304,0s40,17.90859,40,40Zm-15.53398,0c0-13.51221-10.95381-24.46602-24.46602-24.46602s-24.46602,10.95381-24.46602,24.46602,10.95381,24.46602,24.46602,24.46602,24.46602-10.95381,24.46602-24.46602Z"/></svg>